<svg width="1200" height="630" viewBox="0 0 1200 630" xmlns="http://www.w3.org/2000/svg">
  <defs>
    <radialGradient id="centerGlow" cx="50%" cy="50%" r="50%">
      <stop offset="0%" stop-color="#ffd700" stop-opacity="1"/>
      <stop offset="50%" stop-color="#d4a700" stop-opacity="0.5"/>
      <stop offset="100%" stop-color="#1a2744" stop-opacity="0"/>
    </radialGradient>
    <filter id="glow" x="-50%" y="-50%" width="200%" height="200%">
      <feGaussianBlur stdDeviation="5" result="coloredBlur"/>
      <feMerge>
        <feMergeNode in="coloredBlur"/>
        <feMergeNode in="SourceGraphic"/>
      </feMerge>
    </filter>
  </defs>
  
  <!-- Background -->
  <rect width="1200" height="630" fill="#1a2744"/>
  
  <!-- Gold block covering right side - angled edge -->
  <path d="M700,0 Q580,315 700,630 L1200,630 L1200,0 Z" fill="#d4a700"/>
  
  <!-- Logo mark on the gold side -->
  <g transform="translate(920, 315)">
    <!-- Lines -->
    <g stroke="#ffd700" stroke-width="3" stroke-linecap="round" opacity="0.6">
      <line x1="0" y1="0" x2="0" y2="-100"/>
      <line x1="0" y1="0" x2="100" y2="0"/>
      <line x1="0" y1="0" x2="0" y2="100"/>
      <line x1="0" y1="0" x2="-100" y2="0"/>
    </g>
    
    <!-- Outer nodes -->
    <g fill="#ffd700" opacity="0.5">
      <circle cx="0" cy="-100" r="14"/>
      <circle cx="100" cy="0" r="14"/>
      <circle cx="0" cy="100" r="14"/>
      <circle cx="-100" cy="0" r="14"/>
    </g>
    
    <!-- Inner highlights -->
    <g fill="#ffd700" opacity="0.3">
      <circle cx="0" cy="-100" r="8"/>
      <circle cx="100" cy="0" r="8"/>
      <circle cx="0" cy="100" r="8"/>
      <circle cx="-100" cy="0" r="8"/>
    </g>
    
    <!-- Center -->
    <circle cx="0" cy="0" r="26" fill="#ffd700" opacity="0.5"/>
    <circle cx="0" cy="0" r="18" fill="#ffd700" opacity="0.3"/>
  </g>
  
  <!-- Brand name - left side -->
  <text x="80" y="340" font-family="system-ui, -apple-system, BlinkMacSystemFont, 'Segoe UI', sans-serif" font-size="64" font-weight="600" letter-spacing="-2" fill="#ffffff">fiat<tspan fill="#d4a700">.</tspan>markets</text>
  
</svg>
